<svg width="162" height="162" viewBox="0 0 162 162" fill="none" xmlns="http://www.w3.org/2000/svg">
<path fill-rule="evenodd" clip-rule="evenodd" d="M81 5.29819e-08L81.0499 1.5133e-05C81.6022 0.000348442 82.0497 0.448334 82.0493 1.00062C82.049 1.5529 81.601 2.00035 81.0487 2.00001H80.9512C80.399 2.00035 79.951 1.5529 79.9506 1.00062C79.9503 0.448334 80.3978 0.000348621 80.95 1.5133e-05L81 5.29819e-08ZM85.9383 1.14372C85.9787 0.592913 86.4579 0.179145 87.0087 0.219542L87.1078 0.22687C87.6586 0.267937 88.0718 0.747705 88.0307 1.29846C87.9896 1.84922 87.5099 2.2624 86.9591 2.22133L86.8625 2.21418C86.3117 2.17379 85.8979 1.69452 85.9383 1.14372ZM76.0617 1.14372C76.1021 1.69453 75.6883 2.17379 75.1375 2.21419L75.0409 2.22133C74.4901 2.2624 74.0103 1.84922 73.9693 1.29846C73.9282 0.747706 74.3414 0.267939 74.8921 0.226871L74.9912 0.219543C75.542 0.179146 76.0213 0.592914 76.0617 1.14372ZM91.8897 1.72864C91.971 1.18237 92.4798 0.805455 93.0261 0.886769L93.1239 0.901399C93.6701 0.983382 94.0464 1.4926 93.9644 2.03876C93.8824 2.58493 93.3732 2.96122 92.827 2.87924L92.7316 2.86497C92.1853 2.78366 91.8084 2.2749 91.8897 1.72864ZM70.1103 1.72864C70.1916 2.27491 69.8147 2.78366 69.2684 2.86498L69.1729 2.87924C68.6268 2.96123 68.1176 2.58493 68.0356 2.03877C67.9536 1.4926 68.3299 0.983384 68.8761 0.901401L68.9739 0.886772C69.5202 0.805457 70.0289 1.18237 70.1103 1.72864ZM97.7867 2.75768C97.9088 2.21906 98.4444 1.88141 98.983 2.00352L99.0799 2.02555C99.6184 2.14832 99.9554 2.68435 99.8326 3.22282C99.7098 3.76129 99.1738 4.09828 98.6353 3.97551L98.5408 3.95402C98.0022 3.83192 97.6646 3.2963 97.7867 2.75768ZM64.2133 2.75769C64.3354 3.2963 63.9978 3.83192 63.4592 3.95403L63.3647 3.97551C62.8262 4.09828 62.2902 3.76129 62.1674 3.22282C62.0446 2.68436 62.3816 2.14832 62.9201 2.02555L63.017 2.00352C63.5556 1.88142 64.0912 2.21907 64.2133 2.75769ZM103.585 4.22584C103.747 3.69794 104.307 3.40156 104.835 3.56386L104.929 3.59303C105.457 3.75598 105.753 4.31586 105.59 4.84356C105.427 5.37126 104.867 5.66695 104.339 5.504L104.247 5.47555C103.719 5.31326 103.423 4.75374 103.585 4.22584ZM58.4151 4.22584C58.5774 4.75374 58.281 5.31326 57.7531 5.47556L57.6608 5.504C57.1331 5.66695 56.5732 5.37126 56.4102 4.84356C56.2473 4.31586 56.543 3.75598 57.0707 3.59304L57.1654 3.56386C57.6933 3.40156 58.2528 3.69794 58.4151 4.22584ZM109.26 6.12782C109.462 5.61364 110.042 5.36025 110.556 5.56185L110.649 5.59818C111.162 5.80042 111.415 6.38098 111.213 6.89491C111.011 7.40883 110.43 7.6615 109.916 7.45927L109.826 7.42384C109.312 7.22224 109.058 6.64199 109.26 6.12782ZM52.74 6.12782C52.9416 6.64199 52.6882 7.22224 52.174 7.42385L52.0838 7.45927C51.5699 7.6615 50.9893 7.40883 50.7871 6.89491C50.5849 6.38098 50.8375 5.80042 51.3515 5.59818L51.4439 5.56186C51.9581 5.36026 52.5384 5.61365 52.74 6.12782ZM114.773 8.45016C115.012 7.95259 115.61 7.74352 116.107 7.98319L116.197 8.02641C116.694 8.26669 116.903 8.8646 116.662 9.36188C116.422 9.85915 115.824 10.0675 115.327 9.8272L115.239 9.78505C114.742 9.54538 114.533 8.94773 114.773 8.45016ZM47.2275 8.45016C47.4671 8.94773 47.2581 9.54539 46.7605 9.78506L46.6731 9.8272C46.1759 10.0675 45.578 9.85915 45.3377 9.36188C45.0974 8.8646 45.3057 8.26669 45.803 8.02641L45.8926 7.98319C46.3901 7.74352 46.9878 7.95259 47.2275 8.45016ZM120.098 11.1814C120.374 10.7032 120.986 10.5396 121.464 10.8159L121.55 10.8656C122.028 11.1425 122.191 11.7543 121.914 12.2322C121.637 12.71 121.025 12.873 120.547 12.5961L120.464 12.5476C119.985 12.2713 119.822 11.6596 120.098 11.1814ZM41.9019 11.1814C42.1782 11.6597 42.0145 12.2713 41.5363 12.5476L41.4525 12.5961C40.9746 12.873 40.3628 12.7101 40.0859 12.2322C39.809 11.7543 39.972 11.1425 40.4498 10.8656L40.5358 10.8159C41.014 10.5396 41.6256 10.7032 41.9019 11.1814ZM125.202 14.3026C125.514 13.8464 126.136 13.7288 126.592 14.0401L126.674 14.0961C127.13 14.4079 127.247 15.0302 126.935 15.4861C126.623 15.9419 126.001 16.0587 125.545 15.7469L125.465 15.6923C125.009 15.381 124.891 14.7589 125.202 14.3026ZM36.7977 14.3026C37.1089 14.7589 36.9914 15.381 36.5351 15.6923L36.4551 15.7469C35.9992 16.0587 35.3769 15.942 35.0651 15.4861C34.7533 15.0302 34.8701 14.4079 35.326 14.0961L35.408 14.0401C35.8643 13.7288 36.4864 13.8464 36.7977 14.3026ZM130.06 17.7966C130.405 17.3648 131.034 17.294 131.466 17.6383L131.543 17.7003C131.975 18.0452 132.045 18.6744 131.7 19.1058C131.355 19.5372 130.726 19.6073 130.294 19.2624L130.219 19.202C129.787 18.8576 129.716 18.2284 130.06 17.7966ZM31.9396 17.7966C32.2839 18.2284 32.2131 18.8576 31.7813 19.202L31.7056 19.2624C31.2742 19.6073 30.6449 19.5372 30.3001 19.1058C29.9552 18.6744 30.0253 18.0452 30.4567 17.7003L30.5343 17.6383C30.966 17.294 31.5952 17.3648 31.9396 17.7966ZM134.645 21.6421C135.02 21.2371 135.653 21.2132 136.058 21.5887L136.131 21.6563C136.535 22.0323 136.558 22.665 136.182 23.0696C135.806 23.4741 135.174 23.4972 134.769 23.1213L134.698 23.0553C134.293 22.6798 134.269 22.0471 134.645 21.6421ZM27.3554 21.6421C27.7309 22.0471 27.707 22.6798 27.302 23.0553L27.231 23.1213C26.8265 23.4972 26.1937 23.4741 25.8177 23.0696C25.4418 22.665 25.4649 22.0323 25.8694 21.6563L25.9422 21.5887C26.3472 21.2132 26.98 21.2371 27.3554 21.6421ZM138.93 25.8177C139.335 25.4418 139.968 25.4649 140.344 25.8694L140.411 25.9422C140.787 26.3472 140.763 26.98 140.358 27.3554C139.953 27.7309 139.32 27.707 138.945 27.302L138.879 27.231C138.503 26.8265 138.526 26.1937 138.93 25.8177ZM23.0696 25.8178C23.4741 26.1937 23.4972 26.8265 23.1213 27.231L23.0553 27.302C22.6798 27.707 22.0471 27.7309 21.6421 27.3555C21.2371 26.98 21.2132 26.3472 21.5887 25.9422L21.6563 25.8694C22.0323 25.4649 22.665 25.4418 23.0696 25.8178ZM142.894 30.3001C143.326 29.9552 143.955 30.0253 144.3 30.4567L144.362 30.5343C144.706 30.966 144.635 31.5952 144.203 31.9396C143.772 32.2839 143.142 32.2131 142.798 31.7813L142.738 31.7056C142.393 31.2742 142.463 30.6449 142.894 30.3001ZM19.1058 30.3001C19.5372 30.6449 19.6073 31.2742 19.2624 31.7056L19.202 31.7813C18.8576 32.2131 18.2284 32.2839 17.7966 31.9396C17.3648 31.5952 17.294 30.9661 17.6383 30.5343L17.7003 30.4567C18.0452 30.0253 18.6744 29.9552 19.1058 30.3001ZM146.514 35.0651C146.97 34.7533 147.592 34.8701 147.904 35.326L147.96 35.408C148.271 35.8643 148.154 36.4864 147.697 36.7977C147.241 37.1089 146.619 36.9914 146.308 36.5351L146.253 36.4551C145.941 35.9992 146.058 35.3769 146.514 35.0651ZM15.4861 35.0651C15.9419 35.3769 16.0587 35.9992 15.7469 36.4551L15.6923 36.5351C15.381 36.9914 14.7589 37.1089 14.3026 36.7977C13.8464 36.4864 13.7288 35.8643 14.0401 35.4081L14.0961 35.326C14.4079 34.8701 15.0302 34.7533 15.4861 35.0651ZM149.768 40.0859C150.246 39.809 150.858 39.972 151.134 40.4498L151.184 40.5358C151.46 41.014 151.297 41.6256 150.819 41.9019C150.34 42.1782 149.729 42.0145 149.452 41.5363L149.404 41.4525C149.127 40.9746 149.29 40.3628 149.768 40.0859ZM12.2322 40.0859C12.71 40.3628 12.873 40.9746 12.5961 41.4525L12.5476 41.5364C12.2713 42.0146 11.6596 42.1782 11.1814 41.9019C10.7032 41.6256 10.5396 41.014 10.8159 40.5358L10.8656 40.4498C11.1425 39.972 11.7543 39.809 12.2322 40.0859ZM152.638 45.3377C153.135 45.0974 153.733 45.3057 153.974 45.803L154.017 45.8926C154.256 46.3901 154.047 46.9878 153.55 47.2275C153.052 47.4671 152.455 47.2581 152.215 46.7605L152.173 46.6731C151.933 46.1759 152.141 45.578 152.638 45.3377ZM9.36188 45.3377C9.85915 45.578 10.0675 46.1759 9.8272 46.6731L9.78505 46.7605C9.54538 47.2581 8.94773 47.4671 8.45016 47.2275C7.95259 46.9878 7.74352 46.3902 7.98319 45.8926L8.02641 45.803C8.26669 45.3057 8.8646 45.0974 9.36188 45.3377ZM6.89491 50.7871C7.40883 50.9894 7.6615 51.5699 7.45927 52.0838L7.42384 52.174C7.22224 52.6882 6.64199 52.9416 6.12782 52.74C5.61364 52.5384 5.36025 51.9581 5.56185 51.444L5.59818 51.3515C5.80042 50.8376 6.38098 50.5849 6.89491 50.7871ZM155.105 50.7871C155.619 50.5849 156.2 50.8375 156.402 51.3515L156.438 51.4439C156.64 51.9581 156.386 52.5384 155.872 52.74C155.358 52.9416 154.778 52.6882 154.576 52.174L154.541 52.0838C154.339 51.5699 154.591 50.9893 155.105 50.7871ZM157.156 56.4102C157.684 56.2473 158.244 56.543 158.407 57.0707L158.436 57.1654C158.598 57.6933 158.302 58.2528 157.774 58.4151C157.246 58.5774 156.687 58.281 156.524 57.7531L156.496 57.6608C156.333 57.1331 156.629 56.5732 157.156 56.4102ZM4.84356 56.4102C5.37126 56.5732 5.66695 57.1331 5.504 57.6608L5.47555 57.7531C5.31326 58.281 4.75374 58.5774 4.22584 58.4151C3.69794 58.2528 3.40156 57.6933 3.56386 57.1654L3.59303 57.0707C3.75598 56.543 4.31586 56.2473 4.84356 56.4102ZM158.777 62.1674C159.316 62.0446 159.852 62.3816 159.974 62.9201L159.996 63.017C160.119 63.5556 159.781 64.0912 159.242 64.2133C158.704 64.3354 158.168 63.9978 158.046 63.4592L158.024 63.3647C157.902 62.8262 158.239 62.2902 158.777 62.1674ZM3.22282 62.1674C3.76129 62.2902 4.09828 62.8262 3.97551 63.3647L3.95402 63.4592C3.83192 63.9978 3.2963 64.3354 2.75768 64.2133C2.21906 64.0912 1.88141 63.5556 2.00352 63.017L2.02555 62.9201C2.14832 62.3816 2.68435 62.0446 3.22282 62.1674ZM159.961 68.0356C160.507 67.9536 161.017 68.3299 161.099 68.8761L161.113 68.9739C161.195 69.5202 160.818 70.0289 160.271 70.1103C159.725 70.1916 159.216 69.8147 159.135 69.2684L159.121 69.1729C159.039 68.6268 159.415 68.1176 159.961 68.0356ZM2.03876 68.0356C2.58493 68.1176 2.96122 68.6268 2.87924 69.173L2.86497 69.2684C2.78366 69.8147 2.2749 70.1916 1.72864 70.1103C1.18237 70.029 0.805455 69.5202 0.886769 68.9739L0.901399 68.8761C0.983381 68.3299 1.4926 67.9536 2.03876 68.0356ZM160.702 73.9693C161.252 73.9282 161.732 74.3414 161.773 74.8921L161.78 74.9912C161.821 75.542 161.407 76.0213 160.856 76.0617C160.305 76.1021 159.826 75.6883 159.786 75.1375L159.779 75.0409C159.738 74.4901 160.151 74.0103 160.702 73.9693ZM1.29846 73.9693C1.84922 74.0104 2.2624 74.4901 2.22133 75.0409L2.21418 75.1375C2.17379 75.6883 1.69452 76.1021 1.14372 76.0617C0.592913 76.0213 0.179145 75.5421 0.219541 74.9913L0.22687 74.8922C0.267937 74.3414 0.747704 73.9282 1.29846 73.9693ZM160.999 79.9506C161.552 79.9503 162 80.3978 162 80.95L162 80.9994C162 80.9996 162 80.9992 162 80.9994C162 80.9996 162 81.0004 162 81.0006L162 81.0499C162 81.6022 161.552 82.0497 160.999 82.0493C160.447 82.049 160 81.601 160 81.0487V80.9512C160 80.399 160.447 79.951 160.999 79.9506ZM1.00062 79.9507C1.5529 79.951 2.00035 80.399 2.00001 80.9513V81.0488C2.00035 81.601 1.5529 82.049 1.00062 82.0494C0.448334 82.0497 0.000348442 81.6022 1.49541e-05 81.05L5.29819e-08 81.0006C-6.62274e-08 81.0004 5.29819e-08 81.0008 5.29819e-08 81.0006C5.29819e-08 81.0004 -6.62274e-08 80.9996 5.29819e-08 80.9994L1.49541e-05 80.9501C0.000348263 80.3978 0.448334 79.9503 1.00062 79.9507ZM160.856 85.9383C161.407 85.9787 161.821 86.4579 161.78 87.0087L161.773 87.1078C161.732 87.6586 161.252 88.0718 160.702 88.0307C160.151 87.9896 159.738 87.5099 159.779 86.9591L159.786 86.8625C159.826 86.3117 160.305 85.8979 160.856 85.9383ZM1.14372 85.9383C1.69452 85.8979 2.17379 86.3117 2.21419 86.8625L2.22133 86.9591C2.2624 87.5099 1.84922 87.9897 1.29846 88.0307C0.747706 88.0718 0.267938 87.6586 0.226871 87.1079L0.219543 87.0088C0.179146 86.458 0.592914 85.9787 1.14372 85.9383ZM160.271 91.8897C160.818 91.971 161.195 92.4798 161.113 93.0261L161.099 93.1239C161.017 93.6701 160.507 94.0464 159.961 93.9644C159.415 93.8824 159.039 93.3732 159.121 92.827L159.135 92.7316C159.216 92.1853 159.725 91.8084 160.271 91.8897ZM1.72864 91.8897C2.27491 91.8084 2.78366 92.1853 2.86497 92.7316L2.87924 92.8271C2.96123 93.3732 2.58493 93.8824 2.03876 93.9644C1.4926 94.0464 0.983384 93.6701 0.901401 93.1239L0.886771 93.0261C0.805457 92.4798 1.18237 91.9711 1.72864 91.8897ZM159.242 97.7867C159.781 97.9088 160.119 98.4444 159.996 98.983L159.974 99.0799C159.852 99.6184 159.316 99.9554 158.777 99.8326C158.239 99.7098 157.902 99.1738 158.024 98.6353L158.046 98.5408C158.168 98.0022 158.704 97.6646 159.242 97.7867ZM2.75769 97.7867C3.2963 97.6646 3.83192 98.0022 3.95403 98.5408L3.97551 98.6353C4.09828 99.1738 3.76129 99.7098 3.22282 99.8326C2.68436 99.9554 2.14832 99.6184 2.02555 99.0799L2.00352 98.983C1.88142 98.4444 2.21907 97.9088 2.75769 97.7867ZM4.22584 103.585C4.75374 103.423 5.31326 103.719 5.47556 104.247L5.504 104.339C5.66695 104.867 5.37126 105.427 4.84356 105.59C4.31586 105.753 3.75598 105.457 3.59304 104.929L3.56386 104.835C3.40156 104.307 3.69794 103.747 4.22584 103.585ZM157.774 103.585C158.302 103.747 158.598 104.307 158.436 104.835L158.407 104.929C158.244 105.457 157.684 105.753 157.156 105.59C156.629 105.427 156.333 104.867 156.496 104.339L156.524 104.247C156.687 103.719 157.246 103.423 157.774 103.585ZM155.872 109.26C156.386 109.462 156.64 110.042 156.438 110.556L156.402 110.649C156.2 111.162 155.619 111.415 155.105 111.213C154.591 111.011 154.339 110.43 154.541 109.916L154.576 109.826C154.778 109.312 155.358 109.058 155.872 109.26ZM6.12782 109.26C6.64199 109.058 7.22224 109.312 7.42385 109.826L7.45927 109.916C7.6615 110.43 7.40883 111.011 6.89491 111.213C6.38098 111.415 5.80042 111.162 5.59818 110.649L5.56186 110.556C5.36026 110.042 5.61365 109.462 6.12782 109.26ZM153.55 114.773C154.047 115.012 154.256 115.61 154.017 116.107L153.974 116.197C153.733 116.694 153.135 116.903 152.638 116.662C152.141 116.422 151.933 115.824 152.173 115.327L152.215 115.239C152.455 114.742 153.052 114.533 153.55 114.773ZM8.45016 114.773C8.94773 114.533 9.54539 114.742 9.78506 115.24L9.8272 115.327C10.0675 115.824 9.85915 116.422 9.36188 116.662C8.8646 116.903 8.26669 116.694 8.02641 116.197L7.98319 116.107C7.74352 115.61 7.95259 115.012 8.45016 114.773ZM150.819 120.098C151.297 120.374 151.46 120.986 151.184 121.464L151.134 121.55C150.858 122.028 150.246 122.191 149.768 121.914C149.29 121.637 149.127 121.025 149.404 120.547L149.452 120.464C149.729 119.985 150.34 119.822 150.819 120.098ZM11.1814 120.098C11.6597 119.822 12.2713 119.985 12.5476 120.464L12.5961 120.548C12.873 121.025 12.7101 121.637 12.2322 121.914C11.7543 122.191 11.1425 122.028 10.8656 121.55L10.8159 121.464C10.5396 120.986 10.7032 120.374 11.1814 120.098ZM147.697 125.202C148.154 125.514 148.271 126.136 147.96 126.592L147.904 126.674C147.592 127.13 146.97 127.247 146.514 126.935C146.058 126.623 145.941 126.001 146.253 125.545L146.308 125.465C146.619 125.009 147.241 124.891 147.697 125.202ZM14.3026 125.202C14.7589 124.891 15.381 125.009 15.6923 125.465L15.7469 125.545C16.0587 126.001 15.942 126.623 15.4861 126.935C15.0302 127.247 14.4079 127.13 14.0961 126.674L14.0401 126.592C13.7288 126.136 13.8464 125.514 14.3026 125.202ZM144.203 130.06C144.635 130.405 144.706 131.034 144.362 131.466L144.3 131.543C143.955 131.975 143.326 132.045 142.894 131.7C142.463 131.355 142.393 130.726 142.738 130.294L142.798 130.219C143.142 129.787 143.772 129.716 144.203 130.06ZM17.7966 130.06C18.2284 129.716 18.8576 129.787 19.202 130.219L19.2624 130.294C19.6073 130.726 19.5372 131.355 19.1058 131.7C18.6744 132.045 18.0452 131.975 17.7003 131.543L17.6383 131.466C17.294 131.034 17.3648 130.405 17.7966 130.06ZM21.6421 134.645C22.0471 134.269 22.6798 134.293 23.0553 134.698L23.1213 134.769C23.4972 135.174 23.4741 135.806 23.0696 136.182C22.665 136.558 22.0323 136.535 21.6563 136.131L21.5887 136.058C21.2132 135.653 21.2371 135.02 21.6421 134.645ZM140.358 134.645C140.763 135.02 140.787 135.653 140.411 136.058L140.344 136.131C139.968 136.535 139.335 136.558 138.93 136.182C138.526 135.806 138.503 135.174 138.879 134.769L138.945 134.698C139.32 134.293 139.953 134.269 140.358 134.645ZM136.182 138.93C136.558 139.335 136.535 139.968 136.131 140.344L136.058 140.411C135.653 140.787 135.02 140.763 134.645 140.358C134.269 139.953 134.293 139.32 134.698 138.945L134.769 138.879C135.174 138.503 135.806 138.526 136.182 138.93ZM25.8178 138.93C26.1937 138.526 26.8265 138.503 27.231 138.879L27.302 138.945C27.707 139.32 27.7309 139.953 27.3555 140.358C26.98 140.763 26.3472 140.787 25.9422 140.411L25.8694 140.344C25.4649 139.968 25.4418 139.335 25.8178 138.93ZM30.3001 142.894C30.6449 142.463 31.2742 142.393 31.7056 142.738L31.7813 142.798C32.2131 143.142 32.2839 143.772 31.9396 144.203C31.5952 144.635 30.9661 144.706 30.5343 144.362L30.4567 144.3C30.0253 143.955 29.9552 143.326 30.3001 142.894ZM131.7 142.894C132.045 143.326 131.975 143.955 131.543 144.3L131.466 144.362C131.034 144.706 130.405 144.635 130.06 144.203C129.716 143.772 129.787 143.142 130.219 142.798L130.294 142.738C130.726 142.393 131.355 142.463 131.7 142.894ZM35.0651 146.514C35.3769 146.058 35.9992 145.941 36.4551 146.253L36.5351 146.308C36.9914 146.619 37.1089 147.241 36.7977 147.697C36.4864 148.154 35.8643 148.271 35.4081 147.96L35.326 147.904C34.8701 147.592 34.7533 146.97 35.0651 146.514ZM126.935 146.514C127.247 146.97 127.13 147.592 126.674 147.904L126.592 147.96C126.136 148.271 125.514 148.154 125.202 147.697C124.891 147.241 125.009 146.619 125.465 146.308L125.545 146.253C126.001 145.941 126.623 146.058 126.935 146.514ZM40.0859 149.768C40.3628 149.29 40.9746 149.127 41.4525 149.404L41.5364 149.452C42.0146 149.729 42.1782 150.34 41.9019 150.819C41.6256 151.297 41.014 151.46 40.5358 151.184L40.4498 151.134C39.972 150.858 39.809 150.246 40.0859 149.768ZM121.914 149.768C122.191 150.246 122.028 150.858 121.55 151.134L121.464 151.184C120.986 151.46 120.374 151.297 120.098 150.819C119.822 150.34 119.985 149.729 120.464 149.452L120.548 149.404C121.025 149.127 121.637 149.29 121.914 149.768ZM45.3377 152.638C45.578 152.141 46.1759 151.933 46.6731 152.173L46.7605 152.215C47.2581 152.455 47.4671 153.052 47.2275 153.55C46.9878 154.047 46.3902 154.256 45.8926 154.017L45.803 153.974C45.3057 153.733 45.0974 153.135 45.3377 152.638ZM116.662 152.638C116.903 153.135 116.694 153.733 116.197 153.974L116.107 154.017C115.61 154.256 115.012 154.047 114.773 153.55C114.533 153.052 114.742 152.455 115.24 152.215L115.327 152.173C115.824 151.933 116.422 152.141 116.662 152.638ZM50.7871 155.105C50.9894 154.591 51.5699 154.339 52.0838 154.541L52.174 154.576C52.6882 154.778 52.9416 155.358 52.74 155.872C52.5384 156.386 51.9581 156.64 51.444 156.438L51.3515 156.402C50.8376 156.2 50.5849 155.619 50.7871 155.105ZM111.213 155.105C111.415 155.619 111.162 156.2 110.649 156.402L110.556 156.438C110.042 156.64 109.462 156.386 109.26 155.872C109.058 155.358 109.312 154.778 109.826 154.576L109.916 154.541C110.43 154.339 111.011 154.591 111.213 155.105ZM56.4102 157.156C56.5732 156.629 57.1331 156.333 57.6608 156.496L57.7531 156.524C58.281 156.687 58.5774 157.246 58.4151 157.774C58.2528 158.302 57.6933 158.598 57.1654 158.436L57.0707 158.407C56.543 158.244 56.2473 157.684 56.4102 157.156ZM105.59 157.156C105.753 157.684 105.457 158.244 104.929 158.407L104.835 158.436C104.307 158.598 103.747 158.302 103.585 157.774C103.423 157.246 103.719 156.687 104.247 156.524L104.339 156.496C104.867 156.333 105.427 156.629 105.59 157.156ZM62.1674 158.777C62.2902 158.239 62.8262 157.902 63.3647 158.024L63.4592 158.046C63.9978 158.168 64.3354 158.704 64.2133 159.242C64.0912 159.781 63.5556 160.119 63.017 159.996L62.9201 159.974C62.3816 159.852 62.0446 159.316 62.1674 158.777ZM99.8326 158.777C99.9554 159.316 99.6184 159.852 99.0799 159.974L98.983 159.996C98.4444 160.119 97.9088 159.781 97.7867 159.242C97.6646 158.704 98.0022 158.168 98.5408 158.046L98.6353 158.024C99.1738 157.902 99.7098 158.239 99.8326 158.777ZM68.0356 159.961C68.1176 159.415 68.6268 159.039 69.173 159.121L69.2684 159.135C69.8147 159.216 70.1916 159.725 70.1103 160.271C70.029 160.818 69.5202 161.195 68.9739 161.113L68.8761 161.099C68.3299 161.017 67.9536 160.507 68.0356 159.961ZM93.9644 159.961C94.0464 160.507 93.6701 161.017 93.1239 161.099L93.0261 161.113C92.4798 161.195 91.9711 160.818 91.8897 160.271C91.8084 159.725 92.1853 159.216 92.7316 159.135L92.8271 159.121C93.3732 159.039 93.8824 159.415 93.9644 159.961ZM73.9693 160.702C74.0104 160.151 74.4901 159.738 75.0409 159.779L75.1375 159.786C75.6883 159.826 76.1021 160.305 76.0617 160.856C76.0213 161.407 75.5421 161.821 74.9913 161.78L74.8922 161.773C74.3414 161.732 73.9282 161.252 73.9693 160.702ZM88.0307 160.702C88.0718 161.252 87.6586 161.732 87.1079 161.773L87.0088 161.78C86.458 161.821 85.9787 161.407 85.9383 160.856C85.8979 160.305 86.3117 159.826 86.8625 159.786L86.9591 159.779C87.5099 159.738 87.9897 160.151 88.0307 160.702ZM79.9507 160.999C79.951 160.447 80.399 160 80.9513 160H81.0488C81.601 160 82.049 160.447 82.0494 160.999C82.0497 161.552 81.6022 162 81.05 162L81.0006 162C81.0004 162 81.0008 162 81.0006 162C81.0004 162 80.9996 162 80.9994 162L80.9501 162C80.3978 162 79.9503 161.552 79.9507 160.999Z" fill="#EC87BD"/>
<path d="M79.0681 122H52.2281C51.3481 122 50.7981 121.45 50.7981 120.57V42.69C50.7981 41.81 51.3481 41.26 52.2281 41.26H79.0681C105.908 41.26 119.878 56.22 119.878 81.63C119.878 106.93 105.908 122 79.0681 122ZM65.6481 55.23V108.03H77.4181C95.3481 108.03 104.478 98.57 104.478 81.63C104.478 64.69 95.3481 55.23 77.4181 55.23H65.6481Z" fill="#EC87BD"/>
</svg>
