<svg width="152" height="152" viewBox="0 0 152 152" fill="none" xmlns="http://www.w3.org/2000/svg">
<path fill-rule="evenodd" clip-rule="evenodd" d="M13 2L12.9524 2.0001C12.4002 2.00243 11.9506 1.55661 11.9482 1.00433C11.9459 0.452054 12.3917 0.00245124 12.944 0.000118256L13 0H13.0492C13.6015 0 14.0492 0.447715 14.0492 1C14.0492 1.55228 13.6015 2 13.0492 2H13ZM17.9508 1C17.9508 0.447715 18.3985 0 18.9508 0H19.0492C19.6015 0 20.0492 0.447715 20.0492 1C20.0492 1.55228 19.6015 2 19.0492 2H18.9508C18.3985 2 17.9508 1.55228 17.9508 1ZM23.9508 1C23.9508 0.447715 24.3985 0 24.9508 0H25.0492C25.6015 0 26.0492 0.447715 26.0492 1C26.0492 1.55228 25.6015 2 25.0492 2H24.9508C24.3985 2 23.9508 1.55228 23.9508 1ZM29.9508 1C29.9508 0.447715 30.3985 0 30.9508 0H31.0492C31.6015 0 32.0492 0.447715 32.0492 1C32.0492 1.55228 31.6015 2 31.0492 2H30.9508C30.3985 2 29.9508 1.55228 29.9508 1ZM35.9508 1C35.9508 0.447715 36.3985 0 36.9508 0H37.0492C37.6015 0 38.0492 0.447715 38.0492 1C38.0492 1.55228 37.6015 2 37.0492 2H36.9508C36.3985 2 35.9508 1.55228 35.9508 1ZM41.9508 1C41.9508 0.447715 42.3985 0 42.9508 0H43.0492C43.6015 0 44.0492 0.447715 44.0492 1C44.0492 1.55228 43.6015 2 43.0492 2H42.9508C42.3985 2 41.9508 1.55228 41.9508 1ZM47.9508 1C47.9508 0.447715 48.3985 0 48.9508 0H49.0492C49.6015 0 50.0492 0.447715 50.0492 1C50.0492 1.55228 49.6015 2 49.0492 2H48.9508C48.3985 2 47.9508 1.55228 47.9508 1ZM53.9508 1C53.9508 0.447715 54.3985 0 54.9508 0H55.0492C55.6015 0 56.0492 0.447715 56.0492 1C56.0492 1.55228 55.6015 2 55.0492 2H54.9508C54.3985 2 53.9508 1.55228 53.9508 1ZM59.9508 1C59.9508 0.447715 60.3985 0 60.9508 0H61.0492C61.6015 0 62.0492 0.447715 62.0492 1C62.0492 1.55228 61.6015 2 61.0492 2H60.9508C60.3985 2 59.9508 1.55228 59.9508 1ZM65.9508 1C65.9508 0.447715 66.3985 0 66.9508 0H67.0492C67.6015 0 68.0492 0.447715 68.0492 1C68.0492 1.55228 67.6015 2 67.0492 2H66.9508C66.3985 2 65.9508 1.55228 65.9508 1ZM71.9508 1C71.9508 0.447715 72.3985 0 72.9508 0H73.0492C73.6015 0 74.0492 0.447715 74.0492 1C74.0492 1.55228 73.6015 2 73.0492 2H72.9508C72.3985 2 71.9508 1.55228 71.9508 1ZM77.9508 1C77.9508 0.447715 78.3985 0 78.9508 0H79.0492C79.6015 0 80.0492 0.447715 80.0492 1C80.0492 1.55228 79.6015 2 79.0492 2H78.9508C78.3985 2 77.9508 1.55228 77.9508 1ZM83.9508 1C83.9508 0.447715 84.3985 0 84.9508 0H85.0492C85.6015 0 86.0492 0.447715 86.0492 1C86.0492 1.55228 85.6015 2 85.0492 2H84.9508C84.3985 2 83.9508 1.55228 83.9508 1ZM89.9508 1C89.9508 0.447715 90.3985 0 90.9508 0H91.0492C91.6015 0 92.0492 0.447715 92.0492 1C92.0492 1.55228 91.6015 2 91.0492 2H90.9508C90.3985 2 89.9508 1.55228 89.9508 1ZM95.9508 1C95.9508 0.447715 96.3985 0 96.9508 0H97.0492C97.6015 0 98.0492 0.447715 98.0492 1C98.0492 1.55228 97.6015 2 97.0492 2H96.9508C96.3985 2 95.9508 1.55228 95.9508 1ZM101.951 1C101.951 0.447715 102.399 0 102.951 0H103.049C103.601 0 104.049 0.447715 104.049 1C104.049 1.55228 103.601 2 103.049 2H102.951C102.399 2 101.951 1.55228 101.951 1ZM107.951 1C107.951 0.447715 108.399 0 108.951 0H109.049C109.601 0 110.049 0.447715 110.049 1C110.049 1.55228 109.601 2 109.049 2H108.951C108.399 2 107.951 1.55228 107.951 1ZM113.951 1C113.951 0.447715 114.399 0 114.951 0H115.049C115.601 0 116.049 0.447715 116.049 1C116.049 1.55228 115.601 2 115.049 2H114.951C114.399 2 113.951 1.55228 113.951 1ZM119.951 1C119.951 0.447715 120.399 0 120.951 0H121.049C121.601 0 122.049 0.447715 122.049 1C122.049 1.55228 121.601 2 121.049 2H120.951C120.399 2 119.951 1.55228 119.951 1ZM125.951 1C125.951 0.447715 126.399 0 126.951 0H127.049C127.601 0 128.049 0.447715 128.049 1C128.049 1.55228 127.601 2 127.049 2H126.951C126.399 2 125.951 1.55228 125.951 1ZM131.951 1C131.951 0.447715 132.399 0 132.951 0H133.049C133.601 0 134.049 0.447715 134.049 1C134.049 1.55228 133.601 2 133.049 2H132.951C132.399 2 131.951 1.55228 131.951 1ZM137.951 1C137.951 0.447715 138.399 0 138.951 0H139L139.056 0.000118256C139.608 0.0024513 140.054 0.452054 140.052 1.00433C140.049 1.55661 139.6 2.00243 139.048 2.0001L139 2H138.951C138.399 2 137.951 1.55228 137.951 1ZM7.91138 2.08316C8.18591 2.56238 8.01998 3.17341 7.54076 3.44794C7.51345 3.46359 7.48621 3.47935 7.45905 3.49522C6.9822 3.77386 6.36976 3.61319 6.09113 3.13634C5.81249 2.6595 5.97317 2.04706 6.45001 1.76842C6.48212 1.74966 6.51431 1.73103 6.5466 1.71254C7.02582 1.43801 7.63685 1.60394 7.91138 2.08316ZM144.089 2.08316C144.363 1.60394 144.974 1.43801 145.453 1.71254C145.486 1.73103 145.518 1.74966 145.55 1.76842C146.027 2.04706 146.188 2.6595 145.909 3.13634C145.63 3.61319 145.018 3.77386 144.541 3.49523C144.514 3.47935 144.487 3.46359 144.459 3.44795C143.98 3.17342 143.814 2.56238 144.089 2.08316ZM3.13634 6.09112C3.61319 6.36976 3.77386 6.9822 3.49523 7.45904C3.47935 7.48621 3.46359 7.51345 3.44795 7.54076C3.17342 8.01998 2.56238 8.18591 2.08316 7.91138C1.60394 7.63685 1.43801 7.02581 1.71254 6.54659C1.73103 6.51431 1.74966 6.48211 1.76842 6.45C2.04706 5.97316 2.6595 5.81248 3.13634 6.09112ZM148.864 6.09113C149.34 5.81249 149.953 5.97317 150.232 6.45001C150.25 6.48212 150.269 6.51431 150.287 6.5466C150.562 7.02582 150.396 7.63685 149.917 7.91138C149.438 8.18591 148.827 8.01998 148.552 7.54076C148.536 7.51345 148.521 7.48621 148.505 7.45905C148.226 6.9822 148.387 6.36976 148.864 6.09113ZM1.00433 11.9482C1.55661 11.9506 2.00243 12.4002 2.0001 12.9524L2 13V13.0492C2 13.6015 1.55228 14.0492 1 14.0492C0.447715 14.0492 0 13.6015 0 13.0492V13L0.000118256 12.944C0.0024513 12.3917 0.452054 11.9459 1.00433 11.9482ZM150.996 11.9482C151.548 11.9459 151.998 12.3917 152 12.944L152 13V13.0492C152 13.6015 151.552 14.0492 151 14.0492C150.448 14.0492 150 13.6015 150 13.0492V13L150 12.9524C149.998 12.4002 150.443 11.9506 150.996 11.9482ZM1 17.9508C1.55228 17.9508 2 18.3985 2 18.9508V19.0492C2 19.6015 1.55228 20.0492 1 20.0492C0.447715 20.0492 0 19.6015 0 19.0492V18.9508C0 18.3985 0.447715 17.9508 1 17.9508ZM151 17.9508C151.552 17.9508 152 18.3985 152 18.9508V19.0492C152 19.6015 151.552 20.0492 151 20.0492C150.448 20.0492 150 19.6015 150 19.0492V18.9508C150 18.3985 150.448 17.9508 151 17.9508ZM151 23.9508C151.552 23.9508 152 24.3985 152 24.9508V25.0492C152 25.6015 151.552 26.0492 151 26.0492C150.448 26.0492 150 25.6015 150 25.0492V24.9508C150 24.3985 150.448 23.9508 151 23.9508ZM1 23.9508C1.55228 23.9508 2 24.3985 2 24.9508V25.0492C2 25.6015 1.55228 26.0492 1 26.0492C0.447715 26.0492 0 25.6015 0 25.0492V24.9508C0 24.3985 0.447715 23.9508 1 23.9508ZM1 29.9508C1.55228 29.9508 2 30.3985 2 30.9508V31.0492C2 31.6015 1.55228 32.0492 1 32.0492C0.447715 32.0492 0 31.6015 0 31.0492V30.9508C0 30.3985 0.447715 29.9508 1 29.9508ZM151 29.9508C151.552 29.9508 152 30.3985 152 30.9508V31.0492C152 31.6015 151.552 32.0492 151 32.0492C150.448 32.0492 150 31.6015 150 31.0492V30.9508C150 30.3985 150.448 29.9508 151 29.9508ZM1 35.9508C1.55228 35.9508 2 36.3985 2 36.9508V37.0492C2 37.6015 1.55228 38.0492 1 38.0492C0.447715 38.0492 0 37.6015 0 37.0492V36.9508C0 36.3985 0.447715 35.9508 1 35.9508ZM151 35.9508C151.552 35.9508 152 36.3985 152 36.9508V37.0492C152 37.6015 151.552 38.0492 151 38.0492C150.448 38.0492 150 37.6015 150 37.0492V36.9508C150 36.3985 150.448 35.9508 151 35.9508ZM1 41.9508C1.55228 41.9508 2 42.3985 2 42.9508V43.0492C2 43.6015 1.55228 44.0492 1 44.0492C0.447715 44.0492 0 43.6015 0 43.0492V42.9508C0 42.3985 0.447715 41.9508 1 41.9508ZM151 41.9508C151.552 41.9508 152 42.3985 152 42.9508V43.0492C152 43.6015 151.552 44.0492 151 44.0492C150.448 44.0492 150 43.6015 150 43.0492V42.9508C150 42.3985 150.448 41.9508 151 41.9508ZM1 47.9508C1.55228 47.9508 2 48.3985 2 48.9508V49.0492C2 49.6015 1.55228 50.0492 1 50.0492C0.447715 50.0492 0 49.6015 0 49.0492V48.9508C0 48.3985 0.447715 47.9508 1 47.9508ZM151 47.9508C151.552 47.9508 152 48.3985 152 48.9508V49.0492C152 49.6015 151.552 50.0492 151 50.0492C150.448 50.0492 150 49.6015 150 49.0492V48.9508C150 48.3985 150.448 47.9508 151 47.9508ZM1 53.9508C1.55228 53.9508 2 54.3985 2 54.9508V55.0492C2 55.6015 1.55228 56.0492 1 56.0492C0.447715 56.0492 0 55.6015 0 55.0492V54.9508C0 54.3985 0.447715 53.9508 1 53.9508ZM151 53.9508C151.552 53.9508 152 54.3985 152 54.9508V55.0492C152 55.6015 151.552 56.0492 151 56.0492C150.448 56.0492 150 55.6015 150 55.0492V54.9508C150 54.3985 150.448 53.9508 151 53.9508ZM1 59.9508C1.55228 59.9508 2 60.3985 2 60.9508V61.0492C2 61.6015 1.55228 62.0492 1 62.0492C0.447715 62.0492 0 61.6015 0 61.0492V60.9508C0 60.3985 0.447715 59.9508 1 59.9508ZM151 59.9508C151.552 59.9508 152 60.3985 152 60.9508V61.0492C152 61.6015 151.552 62.0492 151 62.0492C150.448 62.0492 150 61.6015 150 61.0492V60.9508C150 60.3985 150.448 59.9508 151 59.9508ZM1 65.9508C1.55228 65.9508 2 66.3985 2 66.9508V67.0492C2 67.6015 1.55228 68.0492 1 68.0492C0.447715 68.0492 0 67.6015 0 67.0492V66.9508C0 66.3985 0.447715 65.9508 1 65.9508ZM151 65.9508C151.552 65.9508 152 66.3985 152 66.9508V67.0492C152 67.6015 151.552 68.0492 151 68.0492C150.448 68.0492 150 67.6015 150 67.0492V66.9508C150 66.3985 150.448 65.9508 151 65.9508ZM1 71.9508C1.55228 71.9508 2 72.3985 2 72.9508V73.0492C2 73.6015 1.55228 74.0492 1 74.0492C0.447715 74.0492 0 73.6015 0 73.0492V72.9508C0 72.3985 0.447715 71.9508 1 71.9508ZM151 71.9508C151.552 71.9508 152 72.3985 152 72.9508V73.0492C152 73.6015 151.552 74.0492 151 74.0492C150.448 74.0492 150 73.6015 150 73.0492V72.9508C150 72.3985 150.448 71.9508 151 71.9508ZM1 77.9508C1.55228 77.9508 2 78.3985 2 78.9508V79.0492C2 79.6015 1.55228 80.0492 1 80.0492C0.447715 80.0492 0 79.6015 0 79.0492V78.9508C0 78.3985 0.447715 77.9508 1 77.9508ZM151 77.9508C151.552 77.9508 152 78.3985 152 78.9508V79.0492C152 79.6015 151.552 80.0492 151 80.0492C150.448 80.0492 150 79.6015 150 79.0492V78.9508C150 78.3985 150.448 77.9508 151 77.9508ZM1 83.9508C1.55228 83.9508 2 84.3985 2 84.9508V85.0492C2 85.6015 1.55228 86.0492 1 86.0492C0.447715 86.0492 0 85.6015 0 85.0492V84.9508C0 84.3985 0.447715 83.9508 1 83.9508ZM151 83.9508C151.552 83.9508 152 84.3985 152 84.9508V85.0492C152 85.6015 151.552 86.0492 151 86.0492C150.448 86.0492 150 85.6015 150 85.0492V84.9508C150 84.3985 150.448 83.9508 151 83.9508ZM1 89.9508C1.55228 89.9508 2 90.3985 2 90.9508V91.0492C2 91.6015 1.55228 92.0492 1 92.0492C0.447715 92.0492 0 91.6015 0 91.0492V90.9508C0 90.3985 0.447715 89.9508 1 89.9508ZM151 89.9508C151.552 89.9508 152 90.3985 152 90.9508V91.0492C152 91.6015 151.552 92.0492 151 92.0492C150.448 92.0492 150 91.6015 150 91.0492V90.9508C150 90.3985 150.448 89.9508 151 89.9508ZM1 95.9508C1.55228 95.9508 2 96.3985 2 96.9508V97.0492C2 97.6015 1.55228 98.0492 1 98.0492C0.447715 98.0492 0 97.6015 0 97.0492V96.9508C0 96.3985 0.447715 95.9508 1 95.9508ZM151 95.9508C151.552 95.9508 152 96.3985 152 96.9508V97.0492C152 97.6015 151.552 98.0492 151 98.0492C150.448 98.0492 150 97.6015 150 97.0492V96.9508C150 96.3985 150.448 95.9508 151 95.9508ZM1 101.951C1.55228 101.951 2 102.399 2 102.951V103.049C2 103.601 1.55228 104.049 1 104.049C0.447715 104.049 0 103.601 0 103.049V102.951C0 102.399 0.447715 101.951 1 101.951ZM151 101.951C151.552 101.951 152 102.399 152 102.951V103.049C152 103.601 151.552 104.049 151 104.049C150.448 104.049 150 103.601 150 103.049V102.951C150 102.399 150.448 101.951 151 101.951ZM1 107.951C1.55228 107.951 2 108.399 2 108.951V109.049C2 109.601 1.55228 110.049 1 110.049C0.447715 110.049 0 109.601 0 109.049V108.951C0 108.399 0.447715 107.951 1 107.951ZM151 107.951C151.552 107.951 152 108.399 152 108.951V109.049C152 109.601 151.552 110.049 151 110.049C150.448 110.049 150 109.601 150 109.049V108.951C150 108.399 150.448 107.951 151 107.951ZM1 113.951C1.55228 113.951 2 114.399 2 114.951V115.049C2 115.601 1.55228 116.049 1 116.049C0.447715 116.049 0 115.601 0 115.049V114.951C0 114.399 0.447715 113.951 1 113.951ZM151 113.951C151.552 113.951 152 114.399 152 114.951V115.049C152 115.601 151.552 116.049 151 116.049C150.448 116.049 150 115.601 150 115.049V114.951C150 114.399 150.448 113.951 151 113.951ZM1 119.951C1.55228 119.951 2 120.399 2 120.951V121.049C2 121.601 1.55228 122.049 1 122.049C0.447715 122.049 0 121.601 0 121.049V120.951C0 120.399 0.447715 119.951 1 119.951ZM151 119.951C151.552 119.951 152 120.399 152 120.951V121.049C152 121.601 151.552 122.049 151 122.049C150.448 122.049 150 121.601 150 121.049V120.951C150 120.399 150.448 119.951 151 119.951ZM1 125.951C1.55228 125.951 2 126.399 2 126.951V127.049C2 127.601 1.55228 128.049 1 128.049C0.447715 128.049 0 127.601 0 127.049V126.951C0 126.399 0.447715 125.951 1 125.951ZM151 125.951C151.552 125.951 152 126.399 152 126.951V127.049C152 127.601 151.552 128.049 151 128.049C150.448 128.049 150 127.601 150 127.049V126.951C150 126.399 150.448 125.951 151 125.951ZM1 131.951C1.55228 131.951 2 132.399 2 132.951V133.049C2 133.601 1.55228 134.049 1 134.049C0.447715 134.049 0 133.601 0 133.049V132.951C0 132.399 0.447715 131.951 1 131.951ZM151 131.951C151.552 131.951 152 132.399 152 132.951V133.049C152 133.601 151.552 134.049 151 134.049C150.448 134.049 150 133.601 150 133.049V132.951C150 132.399 150.448 131.951 151 131.951ZM1 137.951C1.55228 137.951 2 138.399 2 138.951V139L2.0001 139.048C2.00243 139.6 1.55661 140.049 1.00433 140.052C0.452054 140.054 0.00245124 139.608 0.000118256 139.056L0 139V138.951C0 138.399 0.447715 137.951 1 137.951ZM151 137.951C151.552 137.951 152 138.399 152 138.951V139L152 139.056C151.998 139.608 151.548 140.054 150.996 140.052C150.443 140.049 149.998 139.6 150 139.048L150 139V138.951C150 138.399 150.448 137.951 151 137.951ZM2.08316 144.089C2.56238 143.814 3.17341 143.98 3.44794 144.459C3.46359 144.487 3.47935 144.514 3.49522 144.541C3.77386 145.018 3.61319 145.63 3.13634 145.909C2.6595 146.188 2.04706 146.027 1.76842 145.55C1.74966 145.518 1.73103 145.486 1.71254 145.453C1.43801 144.974 1.60394 144.363 2.08316 144.089ZM149.917 144.089C150.396 144.363 150.562 144.974 150.287 145.453C150.269 145.486 150.25 145.518 150.232 145.55C149.953 146.027 149.34 146.188 148.864 145.909C148.387 145.63 148.226 145.018 148.505 144.541C148.521 144.514 148.536 144.487 148.552 144.459C148.827 143.98 149.438 143.814 149.917 144.089ZM6.09112 148.864C6.36976 148.387 6.9822 148.226 7.45904 148.505C7.48621 148.521 7.51345 148.536 7.54076 148.552C8.01998 148.827 8.18591 149.438 7.91138 149.917C7.63685 150.396 7.02581 150.562 6.54659 150.287C6.52595 150.276 6.50535 150.264 6.48478 150.252C6.47318 150.245 6.46159 150.238 6.45 150.232C5.97316 149.953 5.81248 149.34 6.09112 148.864ZM145.909 148.864C146.188 149.34 146.027 149.953 145.55 150.232C145.532 150.242 145.514 150.253 145.496 150.263C145.482 150.271 145.468 150.279 145.453 150.287C144.974 150.562 144.363 150.396 144.089 149.917C143.814 149.438 143.98 148.827 144.459 148.552C144.487 148.536 144.514 148.521 144.541 148.505C145.018 148.226 145.63 148.387 145.909 148.864ZM11.9482 150.996C11.9506 150.443 12.4002 149.998 12.9524 150L13 150H13.0492C13.6015 150 14.0492 150.448 14.0492 151C14.0492 151.552 13.6015 152 13.0492 152H13L12.944 152C12.3917 151.998 11.9459 151.548 11.9482 150.996ZM140.052 150.996C140.054 151.548 139.608 151.998 139.056 152L139 152H138.951C138.399 152 137.951 151.552 137.951 151C137.951 150.448 138.399 150 138.951 150H139L139.048 150C139.6 149.998 140.049 150.443 140.052 150.996ZM17.9508 151C17.9508 150.448 18.3985 150 18.9508 150H19.0492C19.6015 150 20.0492 150.448 20.0492 151C20.0492 151.552 19.6015 152 19.0492 152H18.9508C18.3985 152 17.9508 151.552 17.9508 151ZM23.9508 151C23.9508 150.448 24.3985 150 24.9508 150H25.0492C25.6015 150 26.0492 150.448 26.0492 151C26.0492 151.552 25.6015 152 25.0492 152H24.9508C24.3985 152 23.9508 151.552 23.9508 151ZM29.9508 151C29.9508 150.448 30.3985 150 30.9508 150H31.0492C31.6015 150 32.0492 150.448 32.0492 151C32.0492 151.552 31.6015 152 31.0492 152H30.9508C30.3985 152 29.9508 151.552 29.9508 151ZM35.9508 151C35.9508 150.448 36.3985 150 36.9508 150H37.0492C37.6015 150 38.0492 150.448 38.0492 151C38.0492 151.552 37.6015 152 37.0492 152H36.9508C36.3985 152 35.9508 151.552 35.9508 151ZM41.9508 151C41.9508 150.448 42.3985 150 42.9508 150H43.0492C43.6015 150 44.0492 150.448 44.0492 151C44.0492 151.552 43.6015 152 43.0492 152H42.9508C42.3985 152 41.9508 151.552 41.9508 151ZM47.9508 151C47.9508 150.448 48.3985 150 48.9508 150H49.0492C49.6015 150 50.0492 150.448 50.0492 151C50.0492 151.552 49.6015 152 49.0492 152H48.9508C48.3985 152 47.9508 151.552 47.9508 151ZM53.9508 151C53.9508 150.448 54.3985 150 54.9508 150H55.0492C55.6015 150 56.0492 150.448 56.0492 151C56.0492 151.552 55.6015 152 55.0492 152H54.9508C54.3985 152 53.9508 151.552 53.9508 151ZM59.9508 151C59.9508 150.448 60.3985 150 60.9508 150H61.0492C61.6015 150 62.0492 150.448 62.0492 151C62.0492 151.552 61.6015 152 61.0492 152H60.9508C60.3985 152 59.9508 151.552 59.9508 151ZM65.9508 151C65.9508 150.448 66.3985 150 66.9508 150H67.0492C67.6015 150 68.0492 150.448 68.0492 151C68.0492 151.552 67.6015 152 67.0492 152H66.9508C66.3985 152 65.9508 151.552 65.9508 151ZM71.9508 151C71.9508 150.448 72.3985 150 72.9508 150H73.0492C73.6015 150 74.0492 150.448 74.0492 151C74.0492 151.552 73.6015 152 73.0492 152H72.9508C72.3985 152 71.9508 151.552 71.9508 151ZM77.9508 151C77.9508 150.448 78.3985 150 78.9508 150H79.0492C79.6015 150 80.0492 150.448 80.0492 151C80.0492 151.552 79.6015 152 79.0492 152H78.9508C78.3985 152 77.9508 151.552 77.9508 151ZM83.9508 151C83.9508 150.448 84.3985 150 84.9508 150H85.0492C85.6015 150 86.0492 150.448 86.0492 151C86.0492 151.552 85.6015 152 85.0492 152H84.9508C84.3985 152 83.9508 151.552 83.9508 151ZM89.9508 151C89.9508 150.448 90.3985 150 90.9508 150H91.0492C91.6015 150 92.0492 150.448 92.0492 151C92.0492 151.552 91.6015 152 91.0492 152H90.9508C90.3985 152 89.9508 151.552 89.9508 151ZM95.9508 151C95.9508 150.448 96.3985 150 96.9508 150H97.0492C97.6015 150 98.0492 150.448 98.0492 151C98.0492 151.552 97.6015 152 97.0492 152H96.9508C96.3985 152 95.9508 151.552 95.9508 151ZM101.951 151C101.951 150.448 102.399 150 102.951 150H103.049C103.601 150 104.049 150.448 104.049 151C104.049 151.552 103.601 152 103.049 152H102.951C102.399 152 101.951 151.552 101.951 151ZM107.951 151C107.951 150.448 108.399 150 108.951 150H109.049C109.601 150 110.049 150.448 110.049 151C110.049 151.552 109.601 152 109.049 152H108.951C108.399 152 107.951 151.552 107.951 151ZM113.951 151C113.951 150.448 114.399 150 114.951 150H115.049C115.601 150 116.049 150.448 116.049 151C116.049 151.552 115.601 152 115.049 152H114.951C114.399 152 113.951 151.552 113.951 151ZM119.951 151C119.951 150.448 120.399 150 120.951 150H121.049C121.601 150 122.049 150.448 122.049 151C122.049 151.552 121.601 152 121.049 152H120.951C120.399 152 119.951 151.552 119.951 151ZM125.951 151C125.951 150.448 126.399 150 126.951 150H127.049C127.601 150 128.049 150.448 128.049 151C128.049 151.552 127.601 152 127.049 152H126.951C126.399 152 125.951 151.552 125.951 151ZM131.951 151C131.951 150.448 132.399 150 132.951 150H133.049C133.601 150 134.049 150.448 134.049 151C134.049 151.552 133.601 152 133.049 152H132.951C132.399 152 131.951 151.552 131.951 151Z" fill="#8FBEFA"/>
<path d="M76.024 118.54C52.484 118.54 35.324 101.93 35.324 76.63C35.324 51.33 52.484 34.72 76.024 34.72C99.564 34.72 116.724 51.33 116.724 76.63C116.724 101.93 99.564 118.54 76.024 118.54ZM76.024 104.02C91.534 104.02 101.324 92.58 101.324 76.63C101.324 60.68 91.534 49.24 76.024 49.24C60.514 49.24 50.724 60.68 50.724 76.63C50.724 92.58 60.514 104.02 76.024 104.02Z" fill="#8FBEFA"/>
</svg>
